<svg width="86" height="70" viewBox="0 0 86 70" aria-label="Boots Opticians" focusable="false">
                    <path d="M8.1629 48.5566C3.58957 48.5566 0 52.0541 0 56.7066C0 61.3301 3.58739 64.8119 8.1951 64.8119C12.5077 64.8119 16.358 61.563 16.358 56.7265C16.358 52.1072 12.8245 48.5566 8.1629 48.5566ZM8.16428 50.5437C11.4116 50.5437 14.2133 53.2266 14.2133 56.7248C14.2133 60.3594 11.2313 62.8433 8.19019 62.8433C4.69233 62.8433 2.16097 59.8966 2.16097 56.7511C2.16097 53.043 5.09925 50.5437 8.16428 50.5437Z" fill="currentColor"></path>
                    <path d="M23.094 54.2518C20.7454 54.2518 19.7064 55.7372 19.7064 55.7372V54.4774H17.6653V69.9097H19.7064V63.3746C19.7064 63.3746 20.7148 64.8169 23.0639 64.8091C26.0806 64.8091 28.4033 62.5045 28.4033 59.5313C28.4033 56.72 26.1958 54.2518 23.094 54.2518ZM23.0564 56.2068C24.8337 56.2068 26.3845 57.6302 26.3845 59.5648C26.3845 61.4168 24.8487 62.9077 23.0664 62.9077C21.1551 62.9077 19.7829 61.3905 19.7829 59.5648C19.7829 57.7563 21.0761 56.2068 23.0564 56.2068Z" fill="currentColor"></path>
                    <path d="M33.4587 64.8145C31.4242 64.8145 30.5398 63.7907 30.5398 61.7213V56.3672H28.9383V54.4775H30.5398V51.0525H32.5808V54.4775H35.3049V56.3672H32.5808V61.4063C32.5808 62.398 32.9096 62.9023 33.9939 62.9023C34.4839 62.9023 35.041 62.7617 35.041 62.7617V64.5558C35.041 64.5558 34.5444 64.8145 33.4587 64.8145Z" fill="currentColor"></path>
                    <path d="M51.8924 54.4776H53.9334V64.5559H51.8924V54.4776Z" fill="currentColor"></path>
                    <path d="M52.9193 52.5878C53.678 52.5878 54.293 51.9709 54.293 51.2099C54.293 50.4489 53.678 49.832 52.9193 49.832C52.1605 49.832 51.5455 50.4489 51.5455 51.2099C51.5455 51.9709 52.1605 52.5878 52.9193 52.5878Z" fill="currentColor"></path>
                    <path d="M37.0137 54.4776H39.0547V64.5559H37.0137V54.4776Z" fill="currentColor"></path>
                    <path d="M38.0405 52.5878C38.7993 52.5878 39.4143 51.9709 39.4143 51.2099C39.4143 50.4489 38.7993 49.832 38.0405 49.832C37.2818 49.832 36.6667 50.4489 36.6667 51.2099C36.6667 51.9709 37.2818 52.5878 38.0405 52.5878Z" fill="currentColor"></path>
                    <path d="M45.8129 64.8041C42.8588 64.8041 40.5326 62.4334 40.5326 59.5664C40.5326 56.6597 42.8077 54.2618 45.8215 54.2618C48.8935 54.2618 50.3255 56.7312 50.3255 56.7312L48.5884 57.7503C48.5884 57.7503 47.7161 56.2061 45.8071 56.2061C44.0538 56.2061 42.5478 57.6942 42.5478 59.5699C42.5478 61.258 43.9061 62.9022 45.8982 62.9022C47.7714 62.9022 48.6353 61.2923 48.6353 61.2923L50.3595 62.3222C50.3595 62.3222 48.9629 64.8041 45.8129 64.8041Z" fill="currentColor"></path>
                    <path d="M60.7297 54.2484C57.654 54.2484 55.4202 56.6358 55.4202 59.5561C55.4202 62.4929 57.676 64.797 60.7212 64.797C63.209 64.797 64.1074 63.296 64.1074 63.296V64.5558H66.1328V54.4776H64.1074V55.7863C64.1074 55.7863 63.1199 54.2484 60.7297 54.2484ZM60.7312 56.1996C62.6267 56.1996 64.0629 57.7787 64.0629 59.5413C64.0629 61.5525 62.4173 62.9005 60.741 62.9005C58.8955 62.9005 57.4492 61.4605 57.4492 59.5456C57.4492 57.5723 58.9627 56.1996 60.7312 56.1996Z" fill="currentColor"></path>
                    <path d="M70.0267 64.5559H67.9857V54.4777H70.0267V55.58C70.0267 55.58 70.847 54.2535 72.9906 54.2535C75.6762 54.2535 77.1234 56.0761 77.1234 58.4932V64.5559H75.0823V58.9656C75.0823 57.274 74.1286 56.2046 72.6189 56.2046C70.9926 56.2046 70.0267 57.2646 70.0267 59.3593V64.5559Z" fill="currentColor"></path>
                    <path d="M82.0926 64.8045C84.7292 64.8045 85.8138 63.2789 85.8138 61.6829C85.8138 58.0761 80.6042 59.0514 80.6042 57.1942C80.6042 56.5701 81.1225 56.1256 82.0796 56.1256C83.3449 56.1256 84.3646 56.9411 84.3646 56.9411L85.4721 55.4121C85.4721 55.4121 84.2258 54.2627 82.0376 54.2627C79.7592 54.2627 78.5751 55.7202 78.5751 57.4367C78.5751 61.1214 83.8144 59.8128 83.8144 61.8024C83.8144 62.4594 83.2372 62.9799 82.1357 62.9799C80.6034 62.9799 79.3286 61.9149 79.3286 61.9149L78.1966 63.5142C78.1966 63.5142 79.7706 64.8045 82.0926 64.8045Z" fill="currentColor"></path>
                    <path d="M85.7556 17.1824C85.7558 13.7009 83.9197 12.5786 82.5155 9.74117C82.728 9.45436 83.2407 8.87394 83.4253 8.55127C83.8002 7.89817 84.0072 7.12048 83.6497 6.39322C83.5489 6.20291 83.2586 6.09841 82.9231 6.19834C81.0804 6.91865 81.3552 8.96551 81.2666 9.28096L78.3102 13.6915C76.6879 13.4306 74.9594 13.7594 73.8312 15.0244C72.4673 16.3917 72.0523 19.0099 72.705 20.7597L71.262 22.2457C70.2783 23.1016 69.2717 24.2071 68.2178 24.4719C67.8491 24.544 67.2568 24.5406 67.0947 24.2309C66.8194 23.5191 67.2341 22.7782 67.4613 22.1517L75.1548 5.82838L82.6568 5.05979L83.5069 3.20678L76.3012 3.38947L77.4634 0.856715L74.9022 1.00622L73.6116 3.53307L63.7075 3.88624L61.8212 7.27835L72.0829 6.26851C71.3872 7.65883 70.5468 9.22185 69.8062 10.5702L69.5022 10.3974C66.5674 9.03908 62.374 9.71534 59.5855 11.223C56.1986 9.63273 51.717 11.6445 49.3636 13.7631C49.1515 12.8688 48.3512 11.9049 47.3955 11.6857C45.1598 11.1204 42.7916 12.9953 41.5652 13.8983C41.2735 13.6805 40.8289 13.4388 40.4935 13.3016C39.5769 12.9274 38.9074 12.9347 37.7235 13.1204C38.3676 12.0576 38.6856 10.8545 38.9335 9.61549C39.3535 7.01141 38.5635 4.06631 35.5992 2.4174C36.0948 1.81581 37.2696 1.1367 38.1027 0.579815L37.373 0C36.0482 0.529157 34.3755 1.45146 33.9233 1.69644C32.3836 1.16861 28.2404 0.685204 24.9775 1.26714C19.237 2.29105 14.8758 4.3138 11.6601 8.7335C10.2686 10.6465 9.44044 13.6925 10.5222 16.0554C11.2223 17.3868 12.6709 17.7141 14.281 17.4095C15.3432 17.1624 16.4544 16.519 16.8761 15.5272C16.0015 15.3742 15.0319 14.5896 14.8135 13.5875C14.5139 11.366 15.4986 9.54437 16.7539 7.87757C19.0032 4.97161 22.6516 2.84865 27.0699 2.58774C29.0457 2.57245 30.262 2.66401 31.7026 3.25644C31.7026 3.25644 29.5899 5.07973 28.9851 5.66789C25.7608 8.8025 23.778 11.7272 21.8678 15.1807C20.6625 15.0369 19.5195 15.0849 18.4966 15.6503C17.8991 16.0489 17.448 16.6698 17.4203 17.3867C17.3944 18.568 18.2189 19.5072 19.1886 20.0155L18.9009 20.7062L15.9494 27.057C15.5052 27.9517 15.1004 28.9044 14.713 29.6249C13.8639 28.0145 12.0879 28.1705 11.1457 28.3236C8.95074 28.7542 7.74212 30.5171 7.18251 32.3488C6.50506 35.0251 7.63621 37.5748 9.15 39.3524C8.30438 40.5368 6.80786 41.457 5.83393 41.7013C4.96235 41.9122 3.86722 42.0194 3.06325 41.4019C3.69006 41.3065 4.40797 41.0552 4.84549 40.5632C5.33473 40.0951 5.55314 39.3264 5.41882 38.7693C5.23819 38.0005 4.4891 37.1407 3.71256 36.9645C2.86704 36.7014 1.89933 36.8654 1.21744 37.3629C0.292759 37.9685 -0.0498172 39.1438 0.0863873 40.2589C0.223741 41.555 1.2881 42.6156 2.60885 43.0188C5.84804 44.0082 9.06631 42.6156 11.082 41.1167C12.382 41.8665 13.2036 42.2347 14.5513 42.5237C19.2667 43.5339 24.2092 41.9411 27.4686 37.933C30.9864 33.8413 31.797 27.2358 29.8606 22.436C29.4839 21.5017 29.4047 21.2728 28.9503 20.3959C29.9317 20.0408 31.406 19.4802 32.393 18.7817C33.7516 17.921 34.7438 17.0575 36.3518 15.3106C38.0591 14.3883 39.6012 14.6367 40.0797 15.2293C37.6065 17.6128 36.1375 20.2231 34.7252 23.1421C33.4827 25.9798 32.4328 29.8062 33.4712 32.4393C34.0142 33.4864 35.0487 34.0475 36.1894 33.9282C39.869 33.5452 43.7759 29.3532 45.9297 25.9935C47.768 22.7722 49.3426 19.6842 49.5878 15.8552C51.7168 13.7536 54.3695 12.1839 57.4198 12.5152C54.1013 15.0917 52.4655 16.9536 50.4911 21.1745C49.338 23.6393 48.7923 27.6656 50.4162 29.2418C51.2275 30.1895 52.7433 30.4223 53.9159 30.0587C58.1436 28.6338 61.106 24.1844 62.2039 20.174C62.8354 17.8696 62.766 14.4079 61.1157 12.5601C61.6659 12.186 61.8076 12.1165 62.1413 11.9455C64.038 10.9736 66.9326 10.7491 69.0816 11.9569L64.2022 21.1593C63.4825 22.7679 62.8639 25.0617 63.5857 26.2463C63.9089 26.7803 64.0996 26.9397 64.8483 27.1313C67.7458 27.6503 71.2098 24.5148 73.4982 22.1747C75.7101 24.5931 77.4314 24.0511 79.2565 24.0942V24.1503C79.044 24.542 77.7718 25.5213 77.2096 25.8327C75.6409 26.7004 74.8729 26.8131 73.6109 27.1993L52.6984 32.4573L35.5105 36.6948C33.5631 37.2601 30.7193 38.8564 29.8911 40.8915C29.2918 42.3686 29.1571 44.3907 29.6905 45.4774C32.0462 43.8503 33.9485 43.3859 34.515 43.1521L71.0376 32.0356C72.5201 31.5539 74.1389 31.1292 75.4767 30.2732C77.8356 28.8953 80.8562 25.6392 81.4098 23.4623C81.4098 23.4623 81.4855 23.4147 81.5731 23.3724C82.1296 23.0936 82.9764 22.5023 82.9764 22.5023C84.8033 21.1796 85.6799 19.3068 85.7555 17.1838L85.7556 17.1824ZM25.0173 18.1511C25.7364 18.5039 26.2075 19.2591 26.2075 19.2591C25.489 19.6096 24.4263 19.5142 24.4263 19.5142L25.0173 18.1511ZM19.4545 17.7158C19.3641 17.5076 19.2811 17.2412 19.496 16.891C19.8229 16.4772 20.2928 16.5169 20.8247 16.5192L21.514 16.5198L20.3479 18.5603C19.9495 18.3883 19.5737 17.99 19.4545 17.7158ZM11.2288 37.2547L10.9601 37.6136C10.4692 37.0816 9.88259 36.3901 9.44419 35.0654C9.11621 34.0754 9.32365 32.5889 9.72677 32.1912C10.3254 33.5678 12.0954 33.9475 13.356 33.4404C12.8633 34.4185 11.8933 36.327 11.2288 37.2547ZM27.6588 28.4164C26.9512 31.94 25.2935 35.2872 22.2266 37.533C19.8401 39.1981 16.5654 39.8789 13.693 39.1825C14.6744 38.052 16.8283 34.9182 18.0352 32.6916C20.1779 28.74 21.6245 25.4512 23.4789 21.3181C24.6032 21.3704 26.3954 21.1824 27.3079 20.9493C28.3737 23.3019 28.1634 25.8405 27.6588 28.4164ZM35.1875 9.45217C34.6511 12.7295 33.8777 14.8211 30.3391 17.4041C29.5715 17.9641 28.0827 18.635 28.0827 18.635C27.5833 18.0105 26.5136 17.09 25.7922 16.6356C27.8414 12.986 29.7092 8.90186 32.6692 5.62426L33.7044 4.48418C34.5926 5.61152 35.4442 6.88035 35.1875 9.45217ZM47.1272 15.9302C46.868 17.5414 46.201 19.1357 45.6397 20.6178C45.0863 22.0796 42.5009 26.58 40.2034 29.3636C39.4097 30.1881 38.018 31.6592 37 31.5276C36.746 31.497 36.6402 31.3395 36.5438 31.1797C35.861 29.6731 36.8962 27.2927 37.4164 26.0624C39.1765 21.9168 41.0011 18.5143 44.3096 15.1012C44.8036 14.606 45.8811 13.8346 46.5407 14.0998C47.198 14.3637 47.2129 15.3204 47.1272 15.9302ZM59.9133 19.1118C59.3084 21.2689 58.203 23.4314 57.1606 24.9825C56.5276 25.8742 55.7442 26.8256 54.8869 27.4994C53.9945 28.2012 53.2419 28.3376 52.8916 27.9498C52.4925 27.4486 52.5515 26.4533 52.6681 25.5556C53.5515 22.005 55.2739 19.0503 57.5659 16.0892C57.5659 16.0892 59.546 13.732 59.7355 13.9113C60.6146 14.7531 60.5911 16.7266 59.9133 19.1118ZM74.455 19.3003C73.9897 18.281 74.5824 16.6728 75.4265 15.8152C75.9983 15.2256 77.0225 14.8634 77.7874 15.0166C76.792 16.2689 75.4332 18.0199 74.455 19.3003ZM81.1723 20.8215C81.1289 21.2113 81.0291 21.433 80.983 21.5368C80.1976 22.0487 79.0299 22.5679 77.4582 22.3815C76.5843 22.2774 75.5829 21.713 75.042 20.9283C76.3074 19.1226 77.9506 17.17 79.2456 15.3643C80.8399 16.3577 81.4562 18.9898 81.1723 20.8215ZM83.3247 18.0769C83.1508 18.6648 83.0265 18.8801 82.7975 19.3777C82.729 17.2572 81.8659 15.4404 80.0668 14.1023L82.2372 10.8331C83.6788 13.0631 84.0856 15.5002 83.3247 18.0769Z" fill="currentColor"></path>
                </svg>